<svg width="17" height="15" viewBox="0 0 17 15" fill="none" xmlns="http://www.w3.org/2000/svg">
<path fill-rule="evenodd" clip-rule="evenodd" d="M7.16262 11.25C7.09632 11.25 7.03273 11.2763 6.98584 11.3232C6.93896 11.3701 6.91262 11.4337 6.91262 11.5V12.9585C6.91263 13.2241 6.84215 13.4849 6.70837 13.7143L6.46937 14.1243C6.44726 14.1622 6.43556 14.2054 6.43544 14.2493C6.43532 14.2933 6.4468 14.3365 6.4687 14.3746C6.4906 14.4127 6.52217 14.4444 6.56021 14.4664C6.59825 14.4884 6.64142 14.5 6.68537 14.5H9.31487C9.35886 14.5 9.40207 14.4884 9.44015 14.4664C9.47822 14.4444 9.50981 14.4127 9.53172 14.3745C9.55363 14.3364 9.56509 14.2931 9.56494 14.2492C9.56479 14.2052 9.55304 14.162 9.53087 14.124L9.11712 13.4148C8.98325 13.1854 8.91268 12.9246 8.91262 12.659V11.5C8.91262 11.4337 8.88628 11.3701 8.8394 11.3232C8.79251 11.2763 8.72892 11.25 8.66262 11.25H7.16262Z" fill="#058B00"/>
<path d="M7.41262 11.5C7.41262 11.5663 7.38628 11.6299 7.3394 11.6768C7.29251 11.7237 7.22892 11.75 7.16262 11.75V10.75C6.96371 10.75 6.77294 10.829 6.63229 10.9697C6.49164 11.1103 6.41262 11.3011 6.41262 11.5H7.41262ZM7.41262 12.9585V11.5H6.41262V12.9585H7.41262ZM6.90112 14.376L7.14012 13.9662L6.27637 13.4625L6.03737 13.872L6.90112 14.376ZM6.68512 14C6.72911 14 6.77232 14.0116 6.8104 14.0336C6.84847 14.0556 6.88006 14.0873 6.90197 14.1255C6.92388 14.1636 6.93534 14.2069 6.93519 14.2508C6.93504 14.2948 6.92329 14.338 6.90112 14.376L6.03737 13.872C5.74587 14.372 6.10612 15 6.68512 15V14ZM7.16262 14H6.68512V15H7.16262V14ZM8.66262 14H7.16262V15H8.66262V14ZM9.31462 14H8.66262V15H9.31487L9.31462 14ZM9.09862 14.376C9.07644 14.338 9.06469 14.2948 9.06455 14.2508C9.06441 14.2068 9.07589 14.1635 9.09783 14.1254C9.11977 14.0872 9.1514 14.0555 9.18951 14.0335C9.22762 14.0115 9.27061 13.9999 9.31462 14L9.31487 15C9.89362 15 10.2544 14.372 9.96262 13.872L9.09862 14.376ZM8.68512 13.6667L9.09862 14.376L9.96262 13.872L9.54862 13.1628L8.68512 13.6667ZM8.41262 11.5V12.659H9.41262V11.5H8.41262ZM8.66262 11.75C8.59632 11.75 8.53273 11.7237 8.48584 11.6768C8.43896 11.6299 8.41262 11.5663 8.41262 11.5H9.41262C9.41262 11.3011 9.3336 11.1103 9.19295 10.9697C9.0523 10.829 8.86153 10.75 8.66262 10.75V11.75ZM7.16262 11.75H8.66262V10.75H7.16262V11.75ZM9.54862 13.1628C9.45942 13.0099 9.41265 12.836 9.41262 12.659H8.41262C8.41268 13.013 8.50672 13.361 8.68512 13.6667L9.54862 13.1628ZM6.41262 12.9585C6.41263 13.1356 6.36561 13.3095 6.27637 13.4625L7.14012 13.9662C7.31852 13.6605 7.41256 13.3125 7.41262 12.9585H6.41262Z" fill="#058B00"/>
<path fill-rule="evenodd" clip-rule="evenodd" d="M13.9701 11.25L14.0586 11.2025C15.3864 10.492 15.8959 8.84575 15.2011 7.5095C15.017 7.15457 14.7575 6.84415 14.4409 6.59996C14.1243 6.35576 13.7582 6.18368 13.3681 6.09575L13.4564 5.898C14.0721 4.5175 13.4581 2.899 12.0819 2.274C11.5836 2.04678 11.0286 1.97423 10.4886 2.06575C10.2649 1.59696 9.91306 1.2011 9.47372 0.923999C9.03438 0.646901 8.52554 0.499895 8.00612 0.5C7.48665 0.499848 6.97776 0.646831 6.53838 0.923932C6.09899 1.20103 5.74707 1.59692 5.52337 2.06575C4.98333 1.97418 4.42824 2.04672 3.92987 2.274C2.55362 2.899 1.93987 4.5175 2.55537 5.898L2.64362 6.0955C2.25354 6.18346 1.88738 6.35557 1.57077 6.59982C1.25415 6.84406 0.994718 7.15452 0.810619 7.5095C0.116119 8.84575 0.625619 10.492 1.95312 11.2025L2.04187 11.25H13.9701Z" fill="#058B00"/>
<path d="M13.9701 11.25V11.75C14.0524 11.7499 14.1334 11.7296 14.2059 11.6908L13.9701 11.25ZM13.3681 6.09575L12.9116 5.892C12.8815 5.95952 12.8667 6.03288 12.8684 6.10679C12.87 6.18071 12.8881 6.25334 12.9212 6.31945C12.9542 6.38556 13.0016 6.44351 13.0598 6.48913C13.1179 6.53474 13.1855 6.56689 13.2576 6.58325L13.3681 6.09575ZM10.4886 2.06575L10.0374 2.28125C10.0842 2.3793 10.1617 2.45943 10.2582 2.5095C10.3546 2.55957 10.4647 2.57686 10.5719 2.55875L10.4886 2.06575ZM5.52337 2.06575L5.43987 2.55875C5.54701 2.57686 5.65714 2.55957 5.75359 2.5095C5.85003 2.45943 5.92753 2.3793 5.97437 2.28125L5.52337 2.06575ZM2.64362 6.0955L2.75412 6.58325C2.82624 6.56692 2.89384 6.5348 2.95205 6.48919C3.01026 6.44359 3.05763 6.38564 3.09075 6.31953C3.12387 6.25341 3.14191 6.18077 3.14357 6.10684C3.14523 6.03292 3.13048 5.95954 3.10037 5.892L2.64362 6.0955ZM2.04187 11.25L1.80587 11.691C1.87837 11.7297 1.95962 11.75 2.04187 11.75L2.04187 11.25ZM13.8226 10.7618L13.7341 10.8092L14.2059 11.6908L14.2944 11.6433L13.8226 10.7618ZM14.7576 7.74C15.0307 8.26538 15.0857 8.87724 14.9107 9.4429C14.7357 10.0086 14.3447 10.4824 13.8226 10.7618L14.2944 11.6433C15.8639 10.8035 16.4659 8.858 15.6449 7.279L14.7576 7.74ZM13.2576 6.58325C13.5768 6.6551 13.8765 6.79586 14.1356 6.99568C14.3947 7.19549 14.607 7.44953 14.7576 7.74L15.6449 7.279C15.4272 6.85959 15.1208 6.49252 14.7467 6.20394C14.3725 5.91535 13.9398 5.71197 13.4789 5.608L13.2576 6.58325ZM13.0001 5.69425L12.9116 5.892L13.8251 6.29925L13.9134 6.10175L13.0001 5.69425ZM11.8751 2.72925C12.4161 2.97482 12.838 3.42439 13.0488 3.97986C13.2595 4.53534 13.242 5.15162 13.0001 5.69425L13.9134 6.10175C14.6409 4.47025 13.9151 2.55725 12.2886 1.81875L11.8751 2.72925ZM10.5719 2.55875C11.0136 2.48383 11.4676 2.54323 11.8751 2.72925L12.2886 1.81875C11.6995 1.55027 11.0434 1.46458 10.4051 1.57275L10.5719 2.55875ZM8.00587 1C8.43093 0.999862 8.84734 1.12013 9.20688 1.34689C9.56641 1.57364 9.85435 1.8976 10.0374 2.28125L10.9399 1.85025C10.4169 0.7565 9.29962 0 8.00562 0L8.00587 1ZM5.97437 2.28125C6.15738 1.8976 6.44533 1.57364 6.80486 1.34689C7.16439 1.12013 7.5808 0.999862 8.00587 1L8.00562 0C6.71162 0 5.59462 0.7565 5.07212 1.85L5.97437 2.28125ZM4.13662 2.729C4.5441 2.54303 4.99826 2.48388 5.43987 2.55875L5.60662 1.57275C4.96831 1.46458 4.31223 1.55027 3.72312 1.81875L4.13662 2.729ZM3.01212 5.69425C2.7702 5.15162 2.75246 4.53534 2.96322 3.97986C3.17398 3.42439 3.59563 2.97457 4.13662 2.729L3.72312 1.81875C2.09662 2.55725 1.37112 4.47025 2.09887 6.1015L3.01212 5.69425ZM3.10037 5.892L3.01212 5.69425L2.09887 6.1015L2.18687 6.29925L3.10037 5.892ZM1.25437 7.74C1.40499 7.44953 1.61729 7.19549 1.8764 6.99568C2.1355 6.79586 2.4349 6.6551 2.75412 6.58325L2.53287 5.60825C2.07199 5.71223 1.63937 5.91559 1.26525 6.20412C0.891131 6.49266 0.584529 6.85941 0.366869 7.27875L1.25437 7.74ZM2.18912 10.7618C1.66701 10.4824 1.2763 10.0086 1.10127 9.4429C0.926244 8.87724 0.981252 8.26538 1.25437 7.74L0.366869 7.27875C-0.453881 8.858 0.148119 10.8038 1.71737 11.6435L2.18912 10.7618ZM2.27787 10.8092L2.18912 10.7618L1.71737 11.6435L1.80587 11.691L2.27787 10.8092ZM2.04187 11.75H13.9701V10.75H2.04187V11.75Z" fill="#058B00"/>
</svg>
