<svg width="18" height="18" viewBox="0 0 18 18" fill="none" xmlns="http://www.w3.org/2000/svg">
<path d="M16.0227 8.75H16.75M8.75 1.47727V0.75M8.75 16.75V16.0227M14.5682 14.5682L13.8409 13.8409M14.5682 2.93182L13.8409 3.65909M2.93182 14.5682L3.65909 13.8409M2.93182 2.93182L3.65909 3.65909M0.75 8.75H1.47727M8.75 13.1136C9.90731 13.1136 11.0172 12.6539 11.8356 11.8356C12.6539 11.0172 13.1136 9.90731 13.1136 8.75C13.1136 7.59269 12.6539 6.48278 11.8356 5.66444C11.0172 4.8461 9.90731 4.38636 8.75 4.38636C7.59269 4.38636 6.48278 4.8461 5.66444 5.66444C4.8461 6.48278 4.38636 7.59269 4.38636 8.75C4.38636 9.90731 4.8461 11.0172 5.66444 11.8356C6.48278 12.6539 7.59269 13.1136 8.75 13.1136Z" stroke="white" stroke-width="1.5" stroke-linecap="round" stroke-linejoin="round"/>
</svg>
